<svg fill="none" height="128" viewBox="0 0 128 128" width="128" xmlns="http://www.w3.org/2000/svg"><path d="m33.7867 27.4346c-8.8213-6.3947-23.12-11.344-23.12 4.4053 0 3.1467 1.8667 26.416 2.9653 30.192 3.8027 13.136 16.6934 14.6667 29.0347 12.6347-21.5733 3.5467-26.0747 17.1093-14.224 28.8534 5.4933 5.429 10.2027 8.48 14.224 8.48 10.6667 0 16.7147-14.7681 18.6667-18.6667 1.776-3.5574 2.6666-6.224 2.6666-8 0 1.776.8907 4.4426 2.6667 8 1.952 3.8986 8 18.6667 18.6666 18.6667 4.0214 0 8.7307-3.045 14.224-8.48 11.8507-11.7494 7.3497-25.3121-14.224-28.8534 12.3414 2.0267 25.2267.5013 29.0347-12.6347 1.099-3.776 2.965-27.0506 2.965-30.192 0-15.7493-14.293-10.8-23.1196-4.4053-12.2294 8.864-25.3867 26.9227-30.2134 36.5653-4.8266-9.6426-17.984-27.7013-30.2133-36.5653z" stroke="#000" stroke-linecap="round" stroke-linejoin="round" stroke-width="6"/></svg>