<svg fill="none" height="128" viewBox="0 0 128 128" width="128" xmlns="http://www.w3.org/2000/svg"><path d="m64 59.7547v-15.6053m0 0c0-6.7094-4.7733-12.1494-10.6667-12.1494-5.8933 0-10.6666 5.44-10.6666 12.1494v25.184m21.3333-25.184c0-6.7094 4.7733-12.1494 10.6667-12.1494 5.8933 0 10.6666 5.44 10.6666 12.1494v25.184m14.1227 12.0212c-9.6853 9.4027-35.456 8.672-35.456 8.672-5.8745.0747-11.7438-.3822-17.536-1.3653 6.0107 10.5867 21.9733 14.9867 47.904 13.1997-10.3733 10.736-72.5227 28.038-72.896-40.725l-.1387-6.1547c0-16.192.1227-21.9467 7.2107-30.0427 8.912-10.1867 35.456-8.8853 35.456-8.8853s26.544-1.296 35.456 8.8906c7.088 8.096 7.211 13.8507 7.211 30.0427s-2.432 21.728-7.211 26.368z" stroke="#000" stroke-linecap="round" stroke-linejoin="round" stroke-width="6"/></svg>