<svg fill="none" height="128" viewBox="0 0 128 128" width="128" xmlns="http://www.w3.org/2000/svg"><path d="m16 37.3333c0-2.829 1.1238-5.5421 3.1242-7.5425s4.7135-3.1242 7.5425-3.1242h74.6663c2.829 0 5.542 1.1238 7.543 3.1242 2 2.0004 3.124 4.7135 3.124 7.5425m-96 0v53.3333c0 2.829 1.1238 5.5421 3.1242 7.5425 2.0004 1.9999 4.7135 3.1239 7.5425 3.1239h74.6663c2.829 0 5.542-1.124 7.543-3.1239 2-2.0004 3.124-4.7135 3.124-7.5425v-53.3333m-96 0 48 32 48-32" stroke="#000" stroke-linecap="round" stroke-linejoin="round" stroke-width="6"/></svg>